<svg id="Capa_1" enable-background="new 0 0 510 510" height="512" viewBox="0 0 510 510" width="512" xmlns="http://www.w3.org/2000/svg"><g><path d="m193.748 364.214-113.508 26.446c-20.59 4.57-35.24 22.83-35.24 43.92v75.42h195v-70.749c-1.113-1.807 8.383 13.599-46.252-75.037zm-13.748 100.106h-75v-30h75z"/><path d="m429.76 390.66-113.252-26.387c-41.838 67.449-46.278 74.607-46.508 74.978v70.749h195v-75.42c0-21.09-14.65-39.35-35.24-43.92zm-84.76 73.66h-30v-30h30zm60 0h-30v-30h30z"/><path d="m292.279 324.228c-11.746 4.445-24.328 6.772-37.275 6.772 0 0-.78-.002-1.167-.007-14.123-.153-27.594-3.17-39.879-8.49l-1.765 13.579c35.698 58.708 42.788 70.368 42.807 70.4.003-.004 7.023-11.267 41.162-66.033z"/><path d="m330 160.84c0-22.332-18.168-40.5-40.5-40.5h-51.007c-5.98 29.342-29.151 52.512-58.493 58.493v46.023c0 41.541 33.27 75.696 74.163 76.14 41.941.455 75.837-33.342 75.837-74.996z"/><path d="m186.02 304.691c-22.043-19.508-36.02-48.125-36.02-79.836v-74.515h15c24.814 0 45-20.188 45-45v-15h79.5c38.874 0 70.5 31.626 70.5 70.5v65.16c0 33.298-15.334 63.2-40.543 82.897l6.403 26.753 79.14 18.438v-204.088c0-82.824-67.157-150-150-150-82.84 0-150 67.16-150 150v204.088l76.931-17.925z"/></g></svg>