<svg id="Capa_1" enable-background="new 0 0 512 512" height="512" viewBox="0 0 512 512" width="512" xmlns="http://www.w3.org/2000/svg"><g><circle cx="256" cy="75" r="45"/><path d="m181 195v15h150v-15c0-41.353-33.633-75-75-75s-75 33.647-75 75z"/><circle cx="136" cy="45" r="45"/><circle cx="376" cy="45" r="45"/><path d="m211 512 90-30v-121l150-121h-390l150 121z"/><path d="m190.406 113.681c-13.682-14.5-32.937-23.681-54.406-23.681-41.367 0-75 33.647-75 75v15h91.516c3.88-26.761 17.774-50.056 37.89-66.319z"/><path d="m359.484 180h91.516v-15c0-41.353-33.633-75-75-75-21.469 0-40.724 9.181-54.406 23.681 20.116 16.263 34.01 39.558 37.89 66.319z"/></g></svg>