<svg height="512" viewBox="0 0 58 58" width="512" xmlns="http://www.w3.org/2000/svg"><g id="Page-1" fill="none" fill-rule="evenodd"><g id="058---new-message" fill="rgb(0,0,0)" fill-rule="nonzero"><path id="Shape" d="m38.64 12.661-34.32 11.439c-.38241079.1304715-.64872911.4782561-.67498206.8814578-.02625296.4032017.19271862.782584.55498206.9615422l18.111 8.828c.4146764.1947954.7457232.5318742.933.95l8.812 18.079c.1782014.3648284.5593072.5856927.9644484.5589318.4051412-.0267608.7538851-.2958338.8825516-.6809318l11.436-34.318c-3.1268638-1.111847-5.587153-3.5721362-6.699-6.699zm-5.34 13.452-6.364 6.365c-.3907415.3907414-1.0242585.3907414-1.415 0-.3907414-.3907415-.3907414-1.0242585 0-1.415l6.366-6.363c.2486399-.2701457.6253227-.3823146.9812426-.2921953s.6338334.3680328.7239527.7239527-.0220496.7326027-.2921953.9812426zm6.406-6.406-3.578 3.578c-.2510745.2599566-.6228779.3642126-.9725073.2726972-.3496295-.0915155-.6226744-.3645604-.7141899-.7141899-.0915154-.3496294.0127406-.7214328.2726972-.9725073l3.578-3.578c.3923789-.3789722 1.0160848-.3735524 1.4018186.0121814s.3911536 1.0094397.0121814 1.4018186z"/><path id="Shape" d="m49 0c-4.9705627 0-9 4.02943725-9 9 0 4.9705627 4.0294373 9 9 9s9-4.0294373 9-9c-.0055111-4.96827817-4.0317218-8.99448887-9-9zm2 15c0 .5522847-.4477153 1-1 1s-1-.4477153-1-1v-9.559c-.6147455.33780997-1.2991902.52911225-2 .559-.3572656.00178633-.6883456-.18716196-.8685254-.49566987-.1801798-.30850792-.1820858-.68970576-.005-1s.5062598-.5025438.8635254-.50433013c.9131219-.06916388 1.7196867-.62098385 2.115-1.447.2070599-.41545204.6727907-.63379446 1.1245837-.52722377.4517929.10657069.7708502.51003198.7704163.97422377z"/><path id="Shape" d="m1.062 58c-.44884062.0006165-.84310607-.2978989-.96425667-.7300803-.1211506-.4321815.06049715-.8921389.44425667-1.1249197 1.39005616-.8517181 2.67173834-1.8688036 3.817-3.029 1.1984351-1.1794916 2.28600327-2.4665645 3.249-3.845-2.10430309-.611557-4.01589675-1.7541741-5.551-3.318-1.22474453-1.0447868-1.96811301-2.5456177-2.057-4.153.10651219-1.7095673 1.11176212-3.2343804 2.641-4.006 1.37834882-.7515989 2.98236456-.9782571 4.515-.638 1.52318174.3373218 2.8595554 1.2446963 3.735 2.536.8826232 1.4261286 1.2017445 3.1301294.895 4.779-.1814765 1.1014457-.5086801 2.1738531-.973 3.189.3582289-.0144293.7148839-.0555432 1.067-.123 4.029-.765 6.307-4.915 6.107-8.321-.0209-.3572656.1503865-.6985426.4493375-.8952754.2989511-.1967328.6801489-.2190328 1-.0585s.5297625.4795098.5506625.8367754c.25 4.249-2.633 9.435-7.73 10.4-.8238555.1538545-1.6640217.2015759-2.5.142-1.13543147 1.7732448-2.46864735 3.4117517-3.974 4.884-1.26027784 1.2753712-2.67057313 2.3931981-4.2 3.329-.15695095.0956176-.33721667.1461335-.521.146zm4.7-19c-.75222986-.002372-1.49308492.1836153-2.155.541-.89587535.4343035-1.50365811 1.3007815-1.607 2.291.11314127 1.0610523.64207181 2.0340544 1.471 2.706 1.30000062 1.3302593 2.92285713 2.3005276 4.71 2.816.167.046.334.087.5.124.54965606-1.0412732.93040116-2.1632561 1.128-3.324.2262649-1.1555074.01566968-2.3538691-.591-3.363-.59348775-.8572458-1.48831076-1.4592696-2.506-1.686-.31148059-.0699654-.62975826-.1051805-.949-.105z"/></g></g></svg>