<svg id="Capa_1" enable-background="new 0 0 512 512" height="512" viewBox="0 0 512 512" width="512" xmlns="http://www.w3.org/2000/svg"><g><circle cx="256" cy="226" r="15"/><path d="m460.36 322.021c-2.988-1.721-6.141-2.977-9.36-3.97v-124.188c3.21-.987 6.383-2.164 9.36-3.884 21.475-12.407 28.872-39.976 16.479-61.479-12.422-21.475-39.99-28.901-61.465-16.479h-.029c-2.424 1.403-4.611 3.052-6.667 4.81l-108.504-63.654c.493-2.66.826-5.377.826-8.177 0-24.814-20.186-45-45-45s-45 20.186-45 45c0 2.8.333 5.517.826 8.177l-108.505 63.653c-2.056-1.758-4.243-3.408-6.667-4.81h-.029c-21.504-12.407-49.058-4.995-61.465 16.494-12.393 21.489-4.995 49.058 16.479 61.465 2.979 1.719 6.151 2.897 9.36 3.885v124.186c-3.217.991-6.37 2.245-9.36 3.97-21.474 12.408-28.871 39.976-16.479 61.48 12.512 21.637 40.119 28.782 61.494 16.479 2.424-1.403 4.611-3.052 6.667-4.81l108.505 63.653c-.493 2.661-.826 5.378-.826 8.178 0 24.814 20.186 45 45 45s45-20.186 45-45c0-2.406-.344-4.722-.71-7.028l112.207-62.068c22.744 15.645 51.782 7.325 64.343-14.42 12.392-21.488 4.995-49.056-16.48-61.463zm-189.36 67.516c10.342-1.32 20.44-3.422 30-6.83v-36.707c0-24.814-20.186-45-45-45s-45 20.186-45 45v36.707c9.56 3.408 19.658 5.51 30 6.83v35.226c-5.206 1.857-9.915 4.631-14.041 8.15l-108.781-63.813c.983-5.33 1.027-10.796.033-16.227l29.268-16.893c9.267 12.526 20.561 23.47 33.521 32.166v-22.146c0-41.353 33.647-75 75-75-24.814 0-45-20.186-45-45s20.186-45 45-45 45 20.186 45 45-20.186 45-45 45c41.353 0 75 33.647 75 75v22.147c12.96-8.696 24.254-19.64 33.521-32.166l29.266 16.893c-1.265 6.914-.98 13.931.928 20.557l-108.792 60.209c-4.318-3.876-9.351-6.89-14.923-8.877zm-180-69.435v-128.202c4.362-1.798 8.494-3.867 12.039-6.888l29.409 16.976c-7.273 16.569-11.448 34.788-11.448 54.012 0 19.226 4.226 37.416 11.506 53.978l-29.469 17.01c-3.545-3.021-7.675-5.088-12.037-6.886zm330-128.204v128.202c-4.362 1.798-8.494 3.867-12.039 6.888l-29.467-17.01c7.28-16.562 11.506-34.752 11.506-53.978 0-19.224-4.175-37.443-11.448-54.012l29.41-16.976c3.546 3.021 7.676 5.088 12.038 6.886zm-27.211-32.772-29.515 17.036c-21.768-29.432-55.067-49.349-93.274-53.646v-35.279c5.206-1.857 9.915-4.631 14.041-8.15l108.781 63.813c-.984 5.33-1.028 10.795-.033 16.226zm-152.789-36.61c-38.207 4.297-71.506 24.214-93.274 53.646l-29.513-17.036c.996-5.431.95-10.895-.035-16.225l108.781-63.814c4.125 3.519 8.835 6.293 14.041 8.15z"/></g></svg>