<svg id="Capa_1" enable-background="new 0 0 510 510" height="512" viewBox="0 0 510 510" width="512" xmlns="http://www.w3.org/2000/svg"><g><path d="m457.5 90h-240v212.438l39.646-32.438h200.354zm-105 135h-30v-30h-30v-30h30v-30h30v30h30v30h-30z"/><path d="m212.854 345h-25.354v-255h-135v285h301.253v-75h-85.899z"/><path d="m352.5 60v-10.912c0-27.067-22.021-49.088-49.088-49.088h-201.824c-27.067 0-49.088 22.021-49.088 49.088v10.912z"/><path d="m52.5 405v55.912c0 27.067 22.021 49.088 49.088 49.088h203.077c27.067 0 49.088-22.021 49.088-49.088v-55.912zm179.999 65h-59.993v-30h59.993z"/></g></svg>