<?xml version="1.0" standalone="no"?>
<!DOCTYPE svg PUBLIC "-//W3C//DTD SVG 20010904//EN"
 "http://www.w3.org/TR/2001/REC-SVG-20010904/DTD/svg10.dtd">
<svg version="1.0" xmlns="http://www.w3.org/2000/svg"
 width="996.000000pt" height="994.000000pt" viewBox="0 0 996.000000 994.000000"
 preserveAspectRatio="xMidYMid meet">

<g transform="translate(0.000000,994.000000) scale(0.100000,-0.100000)"
fill="#000000" stroke="none">
<path d="M4425 7473 c-160 -34 -297 -111 -420 -237 -128 -132 -203 -289 -227
-474 -12 -94 -20 -112 -49 -112 -28 0 -41 34 -33 90 l7 51 -649 -3 -649 -3
-49 -25 c-75 -36 -123 -91 -135 -153 -7 -35 -12 -511 -13 -1433 l-3 -1381 749
-6 c1133 -10 1796 -9 1796 4 0 5 -33 43 -73 82 -94 92 -122 147 -122 242 1 79
14 113 69 166 l36 35 -25 142 c-29 167 -31 198 -9 206 9 3 82 6 162 6 l147 0
39 60 c74 116 206 215 370 280 88 35 244 75 333 85 32 4 61 9 65 11 4 3 -4 28
-17 57 -13 28 -36 95 -50 147 -15 52 -37 120 -50 150 -70 163 -115 360 -115
504 1 212 91 373 241 427 33 12 59 25 59 29 0 4 21 31 46 59 161 180 597 200
845 39 173 -112 256 -274 266 -523 7 -159 -17 -311 -75 -497 -22 -68 -49 -159
-61 -203 -12 -44 -33 -104 -47 -134 -13 -30 -23 -55 -22 -56 2 -1 50 -10 108
-19 267 -46 466 -149 575 -298 124 -168 170 -366 182 -785 l6 -233 79 0 78 0
3 1083 c1 595 2 1240 2 1432 l0 350 -25 44 c-32 56 -62 78 -125 90 -30 6 -476
10 -1101 11 l-1051 0 -5 -142 c-5 -125 -9 -155 -36 -238 -98 -296 -327 -516
-627 -602 -68 -19 -103 -23 -235 -22 -139 0 -164 3 -243 27 -245 75 -433 228
-550 447 -54 101 -74 165 -57 185 16 19 50 16 61 -5 4 -8 26 -55 49 -105 141
-309 437 -489 779 -472 139 7 206 24 326 82 411 200 575 698 367 1111 -161
320 -545 503 -897 427z m403 -275 c8 -8 12 -55 12 -145 l0 -133 133 0 c90 0
137 -4 145 -12 17 -17 17 -449 0 -466 -8 -8 -55 -12 -145 -12 l-133 0 0 -133
c0 -90 -4 -137 -12 -145 -17 -17 -449 -17 -466 0 -8 8 -12 55 -12 145 l0 133
-133 0 c-90 0 -137 4 -145 12 -17 17 -17 449 0 466 8 8 55 12 145 12 l133 0 0
133 c0 90 4 137 12 145 9 9 74 12 233 12 159 0 224 -3 233 -12z m-711 -1514
c15 -11 38 -36 51 -54 l22 -34 -2 -715 c-3 -698 -4 -717 -23 -743 -11 -15 -38
-37 -61 -48 -40 -20 -54 -20 -782 -18 -730 3 -741 3 -768 24 -15 11 -37 33
-48 48 -21 27 -21 36 -21 744 l0 717 24 34 c13 18 42 42 65 52 39 18 76 19
778 16 730 -2 737 -2 765 -23z"/>
<path d="M4430 7002 c0 -168 6 -162 -163 -162 l-127 0 0 -165 0 -165 135 0
c123 0 135 -2 145 -19 5 -11 10 -76 10 -145 l0 -126 165 0 165 0 0 126 c0 69
5 134 10 145 10 17 22 19 145 19 l135 0 0 165 0 165 -128 0 c-168 0 -162 -6
-162 163 l0 127 -165 0 -165 0 0 -128z"/>
<path d="M2585 5605 l-25 -24 0 -691 0 -691 25 -24 24 -25 729 0 729 0 24 26
24 26 0 690 0 690 -28 24 -28 24 -725 0 -725 0 -24 -25z m777 -132 c10 -9 18
-22 18 -28 0 -8 26 -15 72 -19 96 -9 237 -57 315 -109 66 -43 85 -75 63 -102
-18 -22 -33 -19 -76 16 -77 63 -235 118 -336 119 l-38 0 0 -95 0 -94 38 -6
c129 -21 227 -57 300 -113 33 -25 40 -50 20 -70 -19 -19 -33 -15 -97 26 -58
38 -133 64 -218 76 l-43 6 0 -98 0 -97 62 -12 c74 -14 183 -66 203 -97 35 -52
-16 -82 -70 -41 -34 27 -139 65 -176 65 -18 0 -19 -9 -19 -165 0 -91 1 -165 3
-165 1 0 29 14 61 30 92 47 176 39 244 -24 35 -32 52 -68 41 -89 -16 -28 -49
-20 -90 23 -33 34 -45 40 -82 40 -51 0 -108 -28 -162 -81 -23 -21 -48 -39 -56
-39 -8 0 -33 18 -54 41 -95 98 -176 105 -266 22 -35 -32 -73 -28 -77 8 -2 21
7 35 43 67 26 23 63 46 82 53 51 17 136 5 188 -26 l45 -26 0 166 0 165 -23 0
c-42 0 -122 -29 -171 -61 -37 -25 -52 -30 -65 -22 -67 42 60 139 208 159 l51
7 0 99 0 99 -47 -6 c-101 -14 -221 -61 -252 -99 -18 -22 -58 -20 -71 3 -30 56
148 153 323 176 l47 6 0 96 0 96 -67 -6 c-100 -8 -216 -49 -294 -102 -58 -39
-71 -45 -88 -35 -51 27 2 89 123 146 86 40 168 63 259 71 56 5 67 9 67 24 0
10 8 23 18 28 23 14 23 14 44 -6z"/>
<path d="M6152 6540 c-76 -14 -159 -45 -198 -75 -153 -117 -150 -370 6 -525
90 -91 148 -107 420 -119 165 -7 202 -11 243 -29 62 -28 150 -112 181 -173 13
-28 27 -46 30 -41 15 25 48 232 53 332 16 332 -122 542 -402 615 -73 19 -261
28 -333 15z"/>
<path d="M5691 6262 c-76 -76 -95 -136 -96 -302 0 -98 5 -157 19 -215 17 -71
20 -77 29 -55 38 98 74 156 130 213 l62 62 -27 55 c-34 70 -52 166 -45 236 7
70 -7 71 -72 6z"/>
<path d="M5826 5845 c-105 -107 -131 -205 -102 -392 50 -331 230 -567 468
-614 159 -32 350 69 463 245 74 117 132 295 121 375 -13 96 -90 213 -165 250
-55 28 -75 30 -262 36 -239 8 -327 32 -423 116 l-45 40 -55 -56z"/>
<path d="M5687 5020 c-27 -5 -51 -11 -54 -14 -3 -3 143 -204 325 -446 l330
-441 312 436 c172 240 310 439 307 441 -3 3 -47 13 -98 21 l-92 16 -21 -29
c-171 -239 -452 -314 -683 -182 -64 36 -149 112 -188 167 -30 45 -41 47 -138
31z"/>
<path d="M5420 4957 c-139 -47 -223 -98 -312 -188 -43 -43 -78 -83 -78 -89 0
-7 88 -10 260 -10 l260 0 10 -22 c8 -20 150 -820 150 -848 0 -6 151 -10 428
-10 l427 0 0 68 c1 146 117 278 274 311 30 6 68 9 86 5 l31 -6 49 182 c49 183
62 208 99 194 8 -3 18 -13 20 -22 3 -10 -17 -98 -44 -197 -46 -166 -49 -180
-32 -189 9 -5 40 -32 68 -61 66 -67 89 -131 81 -222 l-6 -63 181 0 181 0 -6
218 c-3 119 -11 255 -17 302 -46 359 -172 539 -447 640 l-82 30 -289 -403
c-158 -221 -312 -437 -342 -479 -57 -80 -70 -91 -94 -82 -8 3 -177 223 -376
490 -199 266 -367 484 -373 484 -7 -1 -55 -15 -107 -33z"/>
<path d="M4693 4576 c3 -7 13 -64 23 -126 10 -62 23 -113 29 -115 77 -20 100
-30 129 -55 101 -89 185 -384 132 -465 l-16 -25 320 0 c200 0 320 4 320 10 0
5 -27 164 -59 352 -33 189 -62 364 -66 391 l-7 47 -405 0 c-339 0 -404 -2
-400 -14z"/>
<path d="M4686 4229 c-61 -48 -72 -123 -30 -207 43 -87 178 -192 246 -192 37
0 53 49 39 122 -12 65 -53 178 -83 226 -42 68 -120 92 -172 51z"/>
<path d="M6827 4086 c-128 -47 -204 -166 -183 -282 9 -46 73 -116 131 -143 52
-25 139 -28 189 -7 117 49 186 196 140 304 -43 104 -176 166 -277 128z"/>
<path d="M2200 3598 c0 -127 8 -164 46 -219 30 -44 111 -102 170 -123 43 -15
485 -18 3784 -32 l1425 -5 45 23 c88 45 120 137 120 341 l0 107 -326 0 -327 0
-42 -39 c-66 -61 -119 -84 -206 -89 -67 -4 -83 -1 -136 23 -33 14 -78 44 -98
65 -29 30 -49 41 -79 44 -23 3 -1016 8 -2208 11 l-2168 5 0 -112z"/>
<path d="M4400 2856 l0 -293 92 -7 c50 -3 338 -6 640 -6 l548 0 0 300 0 300
-640 0 -640 0 0 -294z"/>
<path d="M3692 2458 c-16 -16 -15 -43 2 -57 10 -8 371 -10 1351 -9 1262 3
1338 4 1349 21 8 12 8 22 0 35 -11 16 -87 17 -1351 20 -1033 1 -1342 -1 -1351
-10z"/>
</g>
</svg>
