<?xml version="1.0" standalone="no"?>
<!DOCTYPE svg PUBLIC "-//W3C//DTD SVG 20010904//EN"
 "http://www.w3.org/TR/2001/REC-SVG-20010904/DTD/svg10.dtd">
<svg version="1.0" xmlns="http://www.w3.org/2000/svg"
 width="1000.000000pt" height="1080.000000pt" viewBox="0 0 1000.000000 1080.000000"
 preserveAspectRatio="xMidYMid meet">

<g transform="translate(0.000000,1080.000000) scale(0.100000,-0.100000)"
fill="#000000" stroke="none">
<path d="M4425 8333 c-160 -34 -297 -111 -420 -237 -128 -132 -203 -289 -227
-474 -12 -94 -20 -112 -49 -112 -28 0 -41 34 -33 90 l7 51 -649 -3 -649 -3
-49 -25 c-75 -36 -123 -91 -135 -153 -7 -35 -12 -511 -13 -1433 l-3 -1381 615
-6 c1120 -10 1930 -8 1930 3 0 6 -33 44 -73 83 -94 92 -122 147 -122 242 1 79
14 113 69 166 l36 35 -25 142 c-29 167 -31 198 -9 206 9 3 82 6 163 6 l147 0
23 40 c60 108 202 222 354 287 91 39 269 87 362 98 33 4 63 9 67 11 4 3 -4 28
-17 57 -13 28 -36 95 -50 147 -15 52 -37 120 -50 150 -70 163 -115 360 -115
504 1 212 91 373 241 427 33 12 59 25 59 29 0 24 98 113 153 139 268 131 654
71 847 -130 176 -184 209 -534 85 -917 -19 -60 -44 -144 -55 -186 -16 -62 -43
-137 -76 -212 -3 -8 16 -14 53 -19 118 -14 285 -64 387 -114 119 -59 197 -125
259 -219 112 -168 152 -357 164 -759 l6 -233 79 0 78 0 3 1078 c1 592 2 1237
2 1432 l0 355 -25 44 c-32 56 -62 78 -125 90 -30 6 -476 10 -1101 11 l-1051 0
-5 -142 c-5 -125 -9 -155 -36 -238 -98 -296 -327 -516 -627 -602 -68 -19 -103
-23 -235 -22 -139 0 -164 3 -243 27 -245 75 -433 228 -550 447 -54 101 -74
165 -57 185 16 19 50 16 61 -5 4 -8 26 -55 49 -105 141 -309 437 -489 779
-472 139 7 206 24 326 82 411 200 575 698 367 1111 -161 320 -545 503 -897
427z m403 -275 c8 -8 12 -55 12 -145 l0 -133 133 0 c90 0 137 -4 145 -12 17
-17 17 -449 0 -466 -8 -8 -55 -12 -145 -12 l-133 0 0 -133 c0 -90 -4 -137 -12
-145 -17 -17 -449 -17 -466 0 -8 8 -12 55 -12 145 l0 133 -133 0 c-90 0 -137
4 -145 12 -17 17 -17 449 0 466 8 8 55 12 145 12 l133 0 0 133 c0 90 4 137 12
145 9 9 74 12 233 12 159 0 224 -3 233 -12z m-711 -1514 c15 -11 38 -36 51
-54 l22 -34 -2 -715 c-3 -698 -4 -717 -23 -743 -11 -15 -38 -37 -61 -48 -40
-20 -54 -20 -782 -18 -730 3 -741 3 -768 24 -15 11 -37 33 -48 48 -21 27 -21
36 -21 744 l0 717 24 34 c13 18 42 42 65 52 39 18 76 19 778 16 730 -2 737 -2
765 -23z"/>
<path d="M4430 7862 c0 -168 6 -162 -163 -162 l-127 0 0 -165 0 -165 135 0
c123 0 135 -2 145 -19 5 -11 10 -76 10 -145 l0 -126 165 0 165 0 0 126 c0 69
5 134 10 145 10 17 22 19 145 19 l135 0 0 165 0 165 -128 0 c-168 0 -162 -6
-162 163 l0 127 -165 0 -165 0 0 -128z"/>
<path d="M2585 6465 l-25 -24 0 -691 0 -691 25 -24 24 -25 729 0 729 0 24 26
24 26 0 690 0 690 -28 24 -28 24 -725 0 -725 0 -24 -25z m777 -132 c10 -9 18
-22 18 -28 0 -8 26 -15 72 -19 96 -9 237 -57 315 -109 66 -43 85 -75 63 -102
-18 -22 -33 -19 -76 16 -77 63 -235 118 -336 119 l-38 0 0 -95 0 -94 38 -6
c129 -21 227 -57 300 -113 33 -25 40 -50 20 -70 -19 -19 -33 -15 -97 26 -58
38 -133 64 -218 76 l-43 6 0 -98 0 -97 62 -12 c74 -14 183 -66 203 -97 35 -52
-16 -82 -70 -41 -34 27 -139 65 -176 65 -18 0 -19 -9 -19 -165 0 -91 1 -165 3
-165 1 0 29 14 61 30 92 47 176 39 244 -24 35 -32 52 -68 41 -89 -16 -28 -49
-20 -90 23 -33 34 -45 40 -82 40 -51 0 -108 -28 -162 -81 -23 -21 -48 -39 -56
-39 -8 0 -33 18 -54 41 -95 98 -176 105 -266 22 -35 -32 -73 -28 -77 8 -2 21
7 35 43 67 26 23 63 46 82 53 51 17 136 5 188 -26 l45 -26 0 166 0 165 -23 0
c-42 0 -122 -29 -171 -61 -37 -25 -52 -30 -65 -22 -67 42 60 139 208 159 l51
7 0 99 0 99 -47 -6 c-101 -14 -221 -61 -252 -99 -18 -22 -58 -20 -71 3 -30 58
137 148 328 176 l42 7 0 95 0 96 -67 -6 c-100 -8 -216 -49 -294 -102 -58 -39
-71 -45 -88 -35 -51 27 2 89 123 146 86 40 168 63 259 71 56 5 67 9 67 24 0
10 8 23 18 28 23 14 23 14 44 -6z"/>
<path d="M6152 7400 c-76 -14 -159 -45 -198 -75 -153 -117 -150 -370 6 -525
90 -91 148 -107 420 -119 165 -7 202 -11 243 -29 62 -28 150 -112 181 -173 13
-28 27 -46 30 -41 2 4 15 55 27 113 30 140 33 384 6 474 -58 188 -185 308
-382 360 -73 19 -260 28 -333 15z"/>
<path d="M5723 7150 c-42 -25 -87 -88 -110 -153 -26 -74 -25 -282 1 -392 17
-71 20 -77 29 -55 38 98 74 156 130 213 l62 62 -27 55 c-34 70 -52 166 -45
236 3 30 3 54 -1 54 -4 0 -21 -9 -39 -20z"/>
<path d="M5826 6705 c-105 -107 -131 -205 -102 -392 50 -331 230 -567 468
-614 159 -32 350 69 463 245 74 117 132 295 121 375 -13 96 -90 213 -165 250
-55 28 -75 30 -262 36 -239 8 -327 32 -423 116 l-45 40 -55 -56z"/>
<path d="M5687 5880 c-27 -5 -51 -11 -54 -14 -3 -3 143 -204 325 -446 l330
-441 312 436 c172 240 310 439 307 441 -3 3 -47 13 -98 21 l-92 16 -21 -29
c-133 -185 -338 -279 -527 -240 -132 28 -268 117 -343 225 -31 45 -41 47 -139
31z"/>
<path d="M5455 5829 c-38 -11 -113 -41 -165 -66 -78 -39 -110 -62 -177 -129
-46 -46 -83 -87 -83 -93 0 -8 82 -11 260 -11 l260 0 10 -22 c8 -20 150 -820
150 -848 0 -6 151 -10 428 -10 l427 0 0 68 c1 146 117 278 274 311 30 6 68 9
86 5 l31 -6 49 182 c49 183 62 208 99 194 8 -3 18 -13 20 -22 3 -10 -17 -98
-44 -197 -46 -166 -49 -180 -32 -189 9 -5 40 -32 68 -61 66 -67 89 -131 81
-222 l-6 -63 181 0 181 0 -6 218 c-3 119 -11 255 -17 302 -46 359 -172 539
-447 640 l-82 30 -289 -403 c-158 -221 -312 -437 -342 -479 -57 -80 -70 -91
-94 -82 -8 3 -177 223 -376 490 -199 266 -365 484 -368 483 -4 0 -38 -9 -77
-20z"/>
<path d="M4693 5436 c3 -7 13 -64 23 -126 10 -62 23 -113 29 -115 77 -20 100
-30 129 -55 101 -89 185 -384 132 -465 l-16 -25 321 0 321 0 -4 28 c-3 15 -33
195 -68 400 l-64 372 -404 0 c-338 0 -403 -2 -399 -14z"/>
<path d="M4686 5089 c-61 -48 -72 -123 -30 -207 43 -87 178 -192 246 -192 37
0 53 49 39 122 -12 65 -53 178 -83 226 -42 68 -120 92 -172 51z"/>
<path d="M6827 4946 c-128 -47 -204 -166 -183 -282 9 -46 73 -116 131 -143 52
-25 139 -28 189 -7 117 49 186 196 140 304 -43 104 -176 166 -277 128z"/>
<path d="M2200 4458 c0 -127 8 -164 46 -219 30 -44 111 -102 170 -123 45 -15
613 -20 3674 -32 l1535 -5 45 23 c88 45 120 137 120 341 l0 107 -326 0 -327 0
-42 -39 c-66 -61 -119 -84 -206 -89 -67 -4 -83 -1 -136 23 -33 14 -78 44 -98
65 -29 30 -49 41 -79 44 -23 3 -1016 8 -2208 11 l-2168 5 0 -112z"/>
<path d="M4400 3716 l0 -293 93 -6 c50 -4 338 -7 640 -7 l547 0 0 300 0 300
-640 0 -640 0 0 -294z"/>
<path d="M3692 3318 c-16 -16 -15 -43 2 -57 10 -8 371 -10 1351 -9 1262 3
1338 4 1349 21 8 12 8 22 0 35 -11 16 -87 17 -1351 20 -1033 1 -1342 -1 -1351
-10z"/>
<path d="M0 400 l0 -400 5000 0 5000 0 0 400 0 400 -5000 0 -5000 0 0 -400z
m2192 123 c23 -20 23 -57 1 -74 -15 -11 -16 -11 -5 1 27 31 11 72 -33 83 -19
4 -19 5 -1 6 11 0 28 -6 38 -16z m-69 -8 c-3 -9 -8 -14 -10 -11 -3 3 -2 9 2
15 9 16 15 13 8 -4z m-1760 -114 c22 -61 43 -108 47 -104 4 4 24 56 45 116 21
59 42 107 47 107 11 0 9 -5 -42 -149 -23 -64 -44 -107 -53 -109 -15 -3 -17 0
-67 143 -15 44 -31 88 -36 99 -5 13 -3 17 6 14 8 -2 32 -55 53 -117z m517 89
c0 -23 4 -30 20 -30 11 0 20 -4 20 -10 0 -5 -10 -10 -21 -10 -20 0 -21 -4 -17
-71 3 -55 8 -74 23 -85 23 -17 14 -29 -13 -15 -11 6 -22 25 -26 42 -10 51 -7
209 4 209 6 0 10 -13 10 -30z m515 16 c25 -11 33 -19 29 -30 -7 -19 -5 -19
-40 -1 -36 18 -55 19 -78 2 -28 -21 -9 -45 49 -62 87 -25 108 -74 54 -127 -29
-29 -33 -30 -90 -25 -68 6 -72 8 -64 29 5 13 12 14 40 5 50 -15 100 1 100 33
0 16 -8 28 -25 36 -87 40 -105 51 -108 67 -14 70 53 106 133 73z m105 -16 c0
-25 4 -30 25 -30 16 0 25 -6 25 -15 0 -9 -9 -15 -25 -15 -24 0 -25 -3 -25 -60
0 -55 2 -62 25 -72 14 -6 25 -15 25 -20 0 -18 -31 -20 -55 -4 -24 16 -25 20
-25 131 0 96 3 115 15 115 10 0 15 -10 15 -30z m482 -32 l3 -62 36 32 c20 18
45 32 55 32 14 0 9 -9 -21 -40 l-39 -40 42 -60 c40 -57 41 -60 20 -60 -16 0
-32 14 -53 45 -16 25 -33 45 -37 45 -5 0 -8 -20 -8 -45 0 -38 -3 -45 -20 -45
-19 0 -20 7 -20 130 0 122 1 130 20 130 16 0 19 -8 22 -62z m193 30 c1 -20 -2
-24 -11 -17 -8 7 -14 6 -17 -3 -3 -7 -6 2 -6 20 -1 27 3 33 17 30 11 -2 17
-13 17 -30z m-44 -35 c13 -16 12 -17 -3 -4 -17 13 -22 21 -14 21 2 0 10 -8 17
-17z m-1502 -19 c12 -15 21 -40 21 -55 0 -29 0 -29 -65 -29 -72 0 -83 -12 -44
-51 17 -17 30 -20 65 -16 43 4 59 -5 28 -17 -45 -17 -106 3 -123 41 -45 98 56
206 118 127z m191 16 c17 -11 10 -13 -40 -10 -47 2 -75 -28 -75 -80 0 -55 26
-80 82 -80 27 0 42 -4 38 -10 -9 -15 -78 -12 -102 5 -50 35 -50 135 0 170 24
17 74 20 97 5z m265 -13 c20 -16 28 -35 32 -69 5 -42 3 -50 -25 -78 -41 -41
-83 -41 -124 0 -28 28 -30 36 -25 78 9 82 84 119 142 69z m85 7 c0 -14 2 -14
22 0 24 17 38 20 38 9 0 -5 -14 -16 -30 -25 -29 -17 -30 -19 -30 -93 0 -43 -4
-75 -10 -75 -6 0 -10 40 -10 100 0 60 4 100 10 100 6 0 10 -7 10 -16z m537 1
c30 -21 44 -75 32 -120 -25 -88 -143 -88 -168 0 -20 72 20 135 84 135 17 0 40
-7 52 -15z m198 -5 c0 -10 -8 -14 -27 -12 -58 6 -91 -42 -67 -100 11 -28 36
-40 74 -35 12 1 20 -4 20 -13 0 -19 -48 -25 -85 -10 -63 26 -68 148 -6 179 31
15 91 9 91 -9z m5344 -83 c8 -26 17 -47 21 -47 4 0 13 21 21 47 8 25 20 48 26
50 8 3 4 -21 -11 -64 -13 -38 -29 -68 -36 -68 -7 0 -23 30 -36 68 -15 43 -19
67 -11 64 6 -2 18 -25 26 -50z m638 36 c3 -8 -6 -11 -23 -10 -35 3 -43 -20
-10 -32 36 -14 50 -45 30 -65 -16 -17 -33 -20 -58 -10 -28 11 -17 24 14 18 22
-5 30 -3 30 8 0 8 -13 24 -30 36 -32 24 -37 41 -18 60 15 15 60 12 65 -5z
m333 -18 c0 -37 10 -44 30 -20 7 8 17 15 22 15 6 0 5 -7 -2 -15 -12 -14 -11
-29 5 -67 11 -27 -10 -21 -25 7 -7 14 -17 25 -22 25 -4 0 -8 -11 -8 -25 0 -14
-4 -25 -10 -25 -6 0 -10 30 -10 70 0 40 4 70 10 70 6 0 10 -16 10 -35z m580
32 c0 -4 -34 -104 -45 -136 -3 -8 -8 -11 -11 -8 -8 7 38 147 48 147 4 0 8 -2
8 -3z m100 -11 c0 -7 -7 -19 -15 -26 -13 -11 -12 -14 6 -29 40 -32 0 -82 -51
-66 -30 9 -24 26 6 19 17 -4 29 -2 35 7 10 16 -7 39 -29 39 -12 0 -10 6 8 25
l23 25 -31 0 c-18 0 -32 5 -32 10 0 6 18 10 40 10 27 0 40 -4 40 -14z m114 5
c3 -5 -8 -11 -24 -15 -32 -6 -41 -26 -12 -26 39 0 58 -55 27 -80 -53 -44 -100
63 -49 114 17 17 50 21 58 7z m107 -7 c7 -9 14 -33 14 -54 0 -65 -47 -93 -79
-48 -43 61 19 157 65 102z m119 2 c0 -7 -7 -19 -15 -26 -13 -11 -12 -14 6 -29
40 -32 0 -82 -51 -66 -31 10 -24 23 13 21 38 -1 44 22 10 39 l-22 11 22 22 21
22 -32 0 c-17 0 -32 5 -32 10 0 6 18 10 40 10 27 0 40 -4 40 -14z m110 -30 c0
-26 5 -47 13 -50 10 -5 10 -7 0 -12 -7 -3 -13 -12 -13 -20 0 -8 -4 -14 -10
-14 -5 0 -10 7 -10 15 0 10 -10 15 -30 15 -37 0 -37 11 -2 66 35 57 52 57 52
0z m120 0 c0 -26 5 -47 13 -50 10 -5 10 -7 0 -12 -7 -3 -13 -12 -13 -20 0 -8
-4 -14 -10 -14 -5 0 -10 7 -10 15 0 10 -10 15 -30 15 -37 0 -37 11 -2 66 35
57 52 57 52 0z m120 34 c0 -5 -11 -10 -25 -10 -32 0 -33 -26 -1 -34 13 -3 27
-13 30 -22 15 -40 -21 -73 -64 -59 -31 10 -23 25 10 19 22 -5 31 -2 36 11 8
19 -10 35 -41 35 -18 0 -20 5 -17 35 4 32 7 35 38 35 19 0 34 -4 34 -10z m104
-6 c20 -20 20 -73 0 -102 -15 -22 -64 -31 -64 -12 0 6 9 10 20 10 10 0 24 9
29 19 9 16 8 18 -9 14 -26 -7 -50 13 -50 41 0 43 44 61 74 30z m-2106 -21 c12
-12 13 -18 4 -21 -14 -4 -17 -62 -2 -62 6 0 10 -5 10 -11 0 -6 -8 -9 -17 -7
-25 5 -40 118 -16 118 2 0 12 -8 21 -17z m360 0 c12 -12 13 -18 4 -21 -14 -4
-17 -62 -2 -62 6 0 10 -5 10 -11 0 -6 -8 -9 -17 -7 -25 5 -40 118 -16 118 2 0
12 -8 21 -17z m-528 -22 c15 -29 13 -31 -26 -31 -24 0 -34 -4 -31 -12 2 -7 16
-13 30 -13 15 1 27 -3 27 -7 0 -16 -31 -21 -56 -10 -27 13 -34 58 -12 80 18
18 56 14 68 -7z m107 4 c2 -6 -9 -11 -24 -10 -23 0 -28 -4 -28 -25 0 -21 5
-25 28 -25 15 1 26 -4 24 -10 -5 -15 -46 -18 -63 -5 -17 15 -18 62 -2 78 15
15 60 12 65 -3z m177 -1 c9 -8 16 -24 16 -34 0 -22 -26 -50 -46 -50 -32 0 -54
21 -54 50 0 45 52 66 84 34z m56 5 c0 -8 5 -7 15 1 24 20 29 4 6 -19 -12 -12
-21 -32 -21 -46 0 -14 -4 -25 -10 -25 -5 0 -10 23 -10 50 0 28 5 50 10 50 6 0
10 -5 10 -11z m304 -5 c9 -8 16 -24 16 -34 0 -22 -26 -50 -46 -50 -32 0 -54
21 -54 50 0 45 52 66 84 34z m113 1 c2 -6 -9 -11 -24 -10 -23 0 -28 -4 -28
-25 0 -21 5 -25 28 -25 15 1 26 -4 24 -10 -5 -15 -46 -18 -63 -5 -20 17 -18
67 4 79 20 13 54 10 59 -4z m250 0 c2 -6 -9 -11 -24 -10 -23 0 -28 -4 -28 -25
0 -21 5 -25 28 -25 15 1 27 -3 27 -7 0 -16 -31 -21 -56 -10 -29 14 -34 65 -6
81 20 13 54 10 59 -4z m107 -1 c9 -8 16 -24 16 -34 0 -22 -26 -50 -46 -50 -32
0 -54 21 -54 50 0 45 52 66 84 34z m56 6 c0 -6 8 -5 20 2 15 9 22 10 31 1 8
-8 16 -9 29 -1 32 20 50 3 50 -47 0 -25 -4 -45 -10 -45 -5 0 -10 18 -10 41 0
33 -3 40 -17 37 -13 -2 -19 -14 -21 -41 -4 -47 -22 -49 -22 -3 0 19 -5 38 -10
41 -18 11 -40 -15 -40 -46 0 -16 -4 -29 -10 -29 -5 0 -10 23 -10 50 0 28 5 50
10 50 6 0 10 -5 10 -10z m-270 -80 c0 -5 -4 -10 -10 -10 -5 0 -10 5 -10 10 0
6 5 10 10 10 6 0 10 -4 10 -10z"/>
<path d="M2150 500 c0 -5 5 -10 10 -10 6 0 10 5 10 10 0 6 -4 10 -10 10 -5 0
-10 -4 -10 -10z"/>
<path d="M536 418 c-28 -39 -21 -48 39 -48 59 0 67 9 45 51 -15 27 -64 25 -84
-3z"/>
<path d="M986 424 c-50 -50 -21 -144 44 -144 48 0 80 50 66 104 -13 53 -75 75
-110 40z"/>
<path d="M1616 408 c-32 -46 -8 -118 39 -118 28 0 55 34 55 70 0 36 -27 70
-55 70 -13 0 -31 -10 -39 -22z"/>
<path d="M8955 330 c-8 -13 13 -40 30 -40 18 0 26 25 12 39 -14 14 -34 14 -42
1z"/>
<path d="M9072 378 c-17 -17 -15 -63 4 -79 14 -11 18 -10 30 6 17 22 18 40 4
66 -12 22 -21 24 -38 7z"/>
<path d="M9307 350 c-18 -29 -18 -30 2 -30 17 0 21 6 21 30 0 17 -1 30 -3 30
-1 0 -11 -13 -20 -30z"/>
<path d="M9427 350 c-18 -29 -18 -30 2 -30 17 0 21 6 21 30 0 17 -1 30 -3 30
-1 0 -11 -13 -20 -30z"/>
<path d="M9644 375 c-4 -9 -2 -21 4 -27 15 -15 44 -1 40 19 -4 23 -36 29 -44
8z"/>
<path d="M7368 343 c6 -2 18 -2 25 0 6 3 1 5 -13 5 -14 0 -19 -2 -12 -5z"/>
<path d="M7644 336 c-10 -26 4 -48 28 -44 17 2 23 10 23 28 0 18 -6 26 -23 28
-13 2 -25 -3 -28 -12z"/>
<path d="M8004 336 c-10 -26 4 -48 28 -44 17 2 23 10 23 28 0 18 -6 26 -23 28
-13 2 -25 -3 -28 -12z"/>
<path d="M8474 336 c-10 -26 4 -48 28 -44 17 2 23 10 23 28 0 18 -6 26 -23 28
-13 2 -25 -3 -28 -12z"/>
</g>
</svg>
